<svg version="1.1" viewBox="0.0 0.0 960.0 720.0" fill="none" stroke="none" stroke-linecap="square" stroke-miterlimit="10" xmlns:xlink="http://www.w3.org/1999/xlink" xmlns="http://www.w3.org/2000/svg"><clipPath id="p.0"><path d="m0 0l960.0 0l0 720.0l-960.0 0l0 -720.0z" clip-rule="nonzero"/></clipPath><g clip-path="url(#p.0)"><path fill="#000000" fill-opacity="0.0" d="m0 0l960.0 0l0 720.0l-960.0 0z" fill-rule="evenodd"/><path fill="#000000" fill-opacity="0.0" d="m150.80315 287.021l54.86615 0l0 54.86615l-54.86615 0z" fill-rule="evenodd"/><path stroke="#999999" stroke-width="3.0" stroke-linejoin="round" stroke-linecap="butt" d="m150.80315 287.021l54.86615 0l0 54.86615l-54.86615 0z" fill-rule="evenodd"/><path fill="#999999" d="m180.00148 321.37405l-1.640625 0l0 -10.453125q-0.59375 0.5625 -1.5625 1.140625q-0.953125 0.5625 -1.71875 0.84375l0 -1.59375q1.375 -0.640625 2.40625 -1.5625q1.03125 -0.921875 1.453125 -1.78125l1.0625 0l0 13.40625z" fill-rule="nonzero"/><path fill="#000000" fill-opacity="0.0" d="m205.6693 287.021l54.866135 0l0 54.86615l-54.866135 0z" fill-rule="evenodd"/><path stroke="#999999" stroke-width="3.0" stroke-linejoin="round" stroke-linecap="butt" d="m205.6693 287.021l54.866135 0l0 54.86615l-54.866135 0z" fill-rule="evenodd"/><path fill="#999999" d="m237.30513 319.79593l0 1.578125l-8.828125 0q-0.015625 -0.59375 0.1875 -1.140625q0.34375 -0.90625 1.078125 -1.78125q0.75 -0.875 2.15625 -2.015625q2.171875 -1.78125 2.9375 -2.828125q0.765625 -1.046875 0.765625 -1.96875q0 -0.984375 -0.703125 -1.640625q-0.6875 -0.671875 -1.8125 -0.671875q-1.1875 0 -1.90625 0.71875q-0.703125 0.703125 -0.703125 1.953125l-1.6875 -0.171875q0.171875 -1.890625 1.296875 -2.875q1.140625 -0.984375 3.03125 -0.984375q1.921875 0 3.046875 1.0625q1.125 1.0625 1.125 2.640625q0 0.796875 -0.328125 1.578125q-0.328125 0.78125 -1.09375 1.640625q-0.75 0.84375 -2.53125 2.34375q-1.46875 1.234375 -1.890625 1.6875q-0.421875 0.4375 -0.6875 0.875l6.546875 0z" fill-rule="nonzero"/><path fill="#000000" fill-opacity="0.0" d="m260.53543 287.021l54.86615 0l0 54.86615l-54.86615 0z" fill-rule="evenodd"/><path stroke="#999999" stroke-width="3.0" stroke-linejoin="round" stroke-linecap="butt" d="m260.53543 287.021l54.86615 0l0 54.86615l-54.86615 0z" fill-rule="evenodd"/><path fill="#999999" d="m283.5619 317.8428l1.640625 -0.21875q0.28125 1.40625 0.953125 2.015625q0.6875 0.609375 1.65625 0.609375q1.15625 0 1.953125 -0.796875q0.796875 -0.796875 0.796875 -1.984375q0 -1.125 -0.734375 -1.859375q-0.734375 -0.734375 -1.875 -0.734375q-0.46875 0 -1.15625 0.171875l0.1875 -1.4375q0.15625 0.015625 0.265625 0.015625q1.046875 0 1.875 -0.546875q0.84375 -0.546875 0.84375 -1.671875q0 -0.90625 -0.609375 -1.5q-0.609375 -0.59375 -1.578125 -0.59375q-0.953125 0 -1.59375 0.609375q-0.640625 0.59375 -0.8125 1.796875l-1.640625 -0.296875q0.296875 -1.640625 1.359375 -2.546875q1.0625 -0.90625 2.65625 -0.90625q1.09375 0 2.0 0.46875q0.921875 0.46875 1.40625 1.28125q0.5 0.8125 0.5 1.71875q0 0.859375 -0.46875 1.578125q-0.46875 0.703125 -1.375 1.125q1.1875 0.28125 1.84375 1.140625q0.65625 0.859375 0.65625 2.15625q0 1.734375 -1.28125 2.953125q-1.265625 1.21875 -3.21875 1.21875q-1.765625 0 -2.921875 -1.046875q-1.15625 -1.046875 -1.328125 -2.71875z" fill-rule="nonzero"/><path fill="#000000" fill-opacity="0.0" d="m315.40158 287.021l54.86615 0l0 54.86615l-54.86615 0z" fill-rule="evenodd"/><path stroke="#999999" stroke-width="3.0" stroke-linejoin="round" stroke-linecap="butt" d="m315.40158 287.021l54.86615 0l0 54.86615l-54.86615 0z" fill-rule="evenodd"/><path fill="#999999" d="m343.67804 321.37405l0 -3.203125l-5.796875 0l0 -1.5l6.09375 -8.65625l1.34375 0l0 8.65625l1.796875 0l0 1.5l-1.796875 0l0 3.203125l-1.640625 0zm0 -4.703125l0 -6.015625l-4.1875 6.015625l4.1875 0z" fill-rule="nonzero"/><path fill="#000000" fill-opacity="0.0" d="m370.26773 287.021l54.86612 0l0 54.86615l-54.86612 0z" fill-rule="evenodd"/><path stroke="#999999" stroke-width="3.0" stroke-linejoin="round" stroke-linecap="butt" d="m370.26773 287.021l54.86612 0l0 54.86615l-54.86612 0z" fill-rule="evenodd"/><path fill="#999999" d="m393.2942 317.87405l1.71875 -0.140625q0.1875 1.25 0.875 1.890625q0.703125 0.625 1.6875 0.625q1.1875 0 2.0 -0.890625q0.828125 -0.890625 0.828125 -2.359375q0 -1.40625 -0.796875 -2.21875q-0.78125 -0.8125 -2.0625 -0.8125q-0.78125 0 -1.421875 0.359375q-0.640625 0.359375 -1.0 0.9375l-1.546875 -0.203125l1.296875 -6.859375l6.640625 0l0 1.5625l-5.328125 0l-0.71875 3.59375q1.203125 -0.84375 2.515625 -0.84375q1.75 0 2.953125 1.21875q1.203125 1.203125 1.203125 3.109375q0 1.8125 -1.046875 3.140625q-1.296875 1.625 -3.515625 1.625q-1.8125 0 -2.96875 -1.015625q-1.15625 -1.03125 -1.3125 -2.71875z" fill-rule="nonzero"/><path fill="#000000" fill-opacity="0.0" d="m425.13385 287.021l54.86615 0l0 54.86615l-54.86615 0z" fill-rule="evenodd"/><path stroke="#999999" stroke-width="3.0" stroke-linejoin="round" stroke-linecap="butt" d="m425.13385 287.021l54.86615 0l0 54.86615l-54.86615 0z" fill-rule="evenodd"/><path fill="#999999" d="m456.6603 311.29593l-1.625 0.125q-0.21875 -0.96875 -0.625 -1.40625q-0.65625 -0.703125 -1.640625 -0.703125q-0.78125 0 -1.375 0.4375q-0.765625 0.5625 -1.21875 1.65625q-0.453125 1.078125 -0.46875 3.078125q0.59375 -0.890625 1.453125 -1.328125q0.859375 -0.4375 1.796875 -0.4375q1.640625 0 2.78125 1.203125q1.15625 1.203125 1.15625 3.109375q0 1.265625 -0.546875 2.34375q-0.53125 1.078125 -1.484375 1.65625q-0.9375 0.578125 -2.140625 0.578125q-2.0625 0 -3.359375 -1.5q-1.28125 -1.515625 -1.28125 -4.984375q0 -3.875 1.421875 -5.625q1.25 -1.53125 3.375 -1.53125q1.5625 0 2.5625 0.890625q1.015625 0.875 1.21875 2.4375zm-6.6875 5.75q0 0.84375 0.359375 1.625q0.359375 0.765625 1.0 1.171875q0.640625 0.40625 1.359375 0.40625q1.03125 0 1.78125 -0.828125q0.75 -0.84375 0.75 -2.28125q0 -1.390625 -0.734375 -2.1875q-0.734375 -0.796875 -1.859375 -0.796875q-1.109375 0 -1.890625 0.796875q-0.765625 0.796875 -0.765625 2.09375z" fill-rule="nonzero"/><path fill="#000000" fill-opacity="0.0" d="m480.0 287.021l54.86615 0l0 54.86615l-54.86615 0z" fill-rule="evenodd"/><path stroke="#999999" stroke-width="3.0" stroke-linejoin="round" stroke-linecap="butt" d="m480.0 287.021l54.86615 0l0 54.86615l-54.86615 0z" fill-rule="evenodd"/><path fill="#999999" d="m503.13583 309.76468l0 -1.578125l8.640625 0l0 1.28125q-1.28125 1.359375 -2.53125 3.609375q-1.25 2.25 -1.9375 4.625q-0.484375 1.671875 -0.625 3.671875l-1.6875 0q0.03125 -1.578125 0.625 -3.8125q0.59375 -2.234375 1.6875 -4.296875q1.109375 -2.078125 2.359375 -3.5l-6.53125 0z" fill-rule="nonzero"/><path fill="#000000" fill-opacity="0.0" d="m534.86615 287.021l54.86615 0l0 54.86615l-54.86615 0z" fill-rule="evenodd"/><path stroke="#999999" stroke-width="3.0" stroke-linejoin="round" stroke-linecap="butt" d="m534.86615 287.021l54.86615 0l0 54.86615l-54.86615 0z" fill-rule="evenodd"/><path fill="#999999" d="m560.4082 314.13968q-1.015625 -0.375 -1.515625 -1.0625q-0.484375 -0.703125 -0.484375 -1.671875q0 -1.453125 1.046875 -2.4375q1.046875 -1.0 2.78125 -1.0q1.75 0 2.8125 1.015625q1.078125 1.015625 1.078125 2.46875q0 0.9375 -0.5 1.625q-0.484375 0.6875 -1.46875 1.0625q1.21875 0.390625 1.859375 1.28125q0.65625 0.890625 0.65625 2.140625q0 1.703125 -1.21875 2.875q-1.21875 1.171875 -3.1875 1.171875q-1.984375 0 -3.203125 -1.171875q-1.203125 -1.171875 -1.203125 -2.921875q0 -1.3125 0.65625 -2.1875q0.671875 -0.875 1.890625 -1.1875zm-0.328125 -2.78125q0 0.9375 0.609375 1.546875q0.609375 0.59375 1.59375 0.59375q0.9375 0 1.546875 -0.59375q0.609375 -0.59375 0.609375 -1.453125q0 -0.90625 -0.625 -1.515625q-0.625 -0.625 -1.5625 -0.625q-0.9375 0 -1.5625 0.609375q-0.609375 0.59375 -0.609375 1.4375zm-0.53125 6.15625q0 0.703125 0.328125 1.359375q0.34375 0.65625 1.0 1.015625q0.65625 0.359375 1.40625 0.359375q1.171875 0 1.9375 -0.75q0.765625 -0.75 0.765625 -1.921875q0 -1.1875 -0.796875 -1.953125q-0.78125 -0.78125 -1.953125 -0.78125q-1.15625 0 -1.921875 0.765625q-0.765625 0.765625 -0.765625 1.90625z" fill-rule="nonzero"/><path fill="#000000" fill-opacity="0.0" d="m589.7323 287.021l54.86615 0l0 54.86615l-54.86615 0z" fill-rule="evenodd"/><path stroke="#999999" stroke-width="3.0" stroke-linejoin="round" stroke-linecap="butt" d="m589.7323 287.021l54.86615 0l0 54.86615l-54.86615 0z" fill-rule="evenodd"/><path fill="#999999" d="m612.9931 318.2803l1.578125 -0.140625q0.203125 1.109375 0.765625 1.609375q0.5625 0.5 1.453125 0.5q0.75 0 1.3125 -0.34375q0.578125 -0.34375 0.9375 -0.921875q0.375 -0.578125 0.609375 -1.5625q0.25 -0.984375 0.25 -2.0q0 -0.109375 0 -0.328125q-0.5 0.78125 -1.359375 1.265625q-0.84375 0.484375 -1.828125 0.484375q-1.671875 0 -2.8125 -1.203125q-1.140625 -1.203125 -1.140625 -3.171875q0 -2.03125 1.1875 -3.265625q1.203125 -1.234375 3.0 -1.234375q1.3125 0 2.390625 0.703125q1.078125 0.703125 1.640625 2.0q0.5625 1.296875 0.5625 3.75q0 2.5625 -0.5625 4.078125q-0.5625 1.515625 -1.65625 2.3125q-1.09375 0.796875 -2.578125 0.796875q-1.5625 0 -2.5625 -0.875q-0.984375 -0.875 -1.1875 -2.453125zm6.71875 -5.890625q0 -1.40625 -0.75 -2.234375q-0.75 -0.828125 -1.8125 -0.828125q-1.09375 0 -1.90625 0.890625q-0.8125 0.890625 -0.8125 2.3125q0 1.28125 0.765625 2.078125q0.78125 0.796875 1.90625 0.796875q1.140625 0 1.875 -0.796875q0.734375 -0.796875 0.734375 -2.21875z" fill-rule="nonzero"/><path fill="#000000" fill-opacity="0.0" d="m644.59845 287.021l54.86609 0l0 54.86615l-54.86609 0z" fill-rule="evenodd"/><path stroke="#999999" stroke-width="3.0" stroke-linejoin="round" stroke-linecap="butt" d="m644.59845 287.021l54.86609 0l0 54.86615l-54.86609 0z" fill-rule="evenodd"/><path fill="#999999" d="m668.6089 321.37405l-1.640625 0l0 -10.453125q-0.59375 0.5625 -1.5625 1.140625q-0.953125 0.5625 -1.71875 0.84375l0 -1.59375q1.375 -0.640625 2.40625 -1.5625q1.03125 -0.921875 1.453125 -1.78125l1.0625 0l0 13.40625zm4.2038574 -6.59375q0 -2.359375 0.484375 -3.796875q0.484375 -1.453125 1.4375 -2.234375q0.96875 -0.78125 2.421875 -0.78125q1.078125 0 1.890625 0.4375q0.8125 0.421875 1.328125 1.25q0.53125 0.8125 0.828125 1.984375q0.3125 1.15625 0.3125 3.140625q0 2.359375 -0.484375 3.8125q-0.484375 1.4375 -1.453125 2.234375q-0.953125 0.78125 -2.421875 0.78125q-1.921875 0 -3.03125 -1.390625q-1.3125 -1.671875 -1.3125 -5.4375zm1.671875 0q0 3.296875 0.765625 4.390625q0.78125 1.078125 1.90625 1.078125q1.140625 0 1.90625 -1.09375q0.765625 -1.09375 0.765625 -4.375q0 -3.296875 -0.765625 -4.375q-0.765625 -1.078125 -1.921875 -1.078125q-1.125 0 -1.796875 0.953125q-0.859375 1.21875 -0.859375 4.5z" fill-rule="nonzero"/><path fill="#000000" fill-opacity="0.0" d="m699.46454 287.021l54.86615 0l0 54.86615l-54.86615 0z" fill-rule="evenodd"/><path stroke="#999999" stroke-width="3.0" stroke-linejoin="round" stroke-linecap="butt" d="m699.46454 287.021l54.86615 0l0 54.86615l-54.86615 0z" fill-rule="evenodd"/><path fill="#999999" d="m724.1678 321.37405l-1.640625 0l0 -10.453125q-0.59375 0.5625 -1.5625 1.140625q-0.953125 0.5625 -1.71875 0.84375l0 -1.59375q1.375 -0.640625 2.40625 -1.5625q1.03125 -0.921875 1.453125 -1.78125l1.0625 0l0 13.40625zm8.990295 0l-1.640625 0l0 -10.453125q-0.59375 0.5625 -1.5625 1.140625q-0.953125 0.5625 -1.71875 0.84375l0 -1.59375q1.375 -0.640625 2.40625 -1.5625q1.03125 -0.921875 1.453125 -1.78125l1.0625 0l0 13.40625z" fill-rule="nonzero"/><path fill="#000000" fill-opacity="0.0" d="m754.3307 287.021l54.86615 0l0 54.86615l-54.86615 0z" fill-rule="evenodd"/><path stroke="#999999" stroke-width="3.0" stroke-linejoin="round" stroke-linecap="butt" d="m754.3307 287.021l54.86615 0l0 54.86615l-54.86615 0z" fill-rule="evenodd"/><path fill="#999999" d="m778.3412 321.37405l-1.640625 0l0 -10.453125q-0.59375 0.5625 -1.5625 1.140625q-0.953125 0.5625 -1.71875 0.84375l0 -1.59375q1.375 -0.640625 2.40625 -1.5625q1.03125 -0.921875 1.453125 -1.78125l1.0625 0l0 13.40625zm12.813232 -1.578125l0 1.578125l-8.828125 0q-0.015625 -0.59375 0.1875 -1.140625q0.34375 -0.90625 1.078125 -1.78125q0.75 -0.875 2.15625 -2.015625q2.171875 -1.78125 2.9375 -2.828125q0.765625 -1.046875 0.765625 -1.96875q0 -0.984375 -0.703125 -1.640625q-0.6875 -0.671875 -1.8125 -0.671875q-1.1875 0 -1.90625 0.71875q-0.703125 0.703125 -0.703125 1.953125l-1.6875 -0.171875q0.171875 -1.890625 1.296875 -2.875q1.140625 -0.984375 3.03125 -0.984375q1.921875 0 3.046875 1.0625q1.125 1.0625 1.125 2.640625q0 0.796875 -0.328125 1.578125q-0.328125 0.78125 -1.09375 1.640625q-0.75 0.84375 -2.53125 2.34375q-1.46875 1.234375 -1.890625 1.6875q-0.421875 0.4375 -0.6875 0.875l6.546875 0z" fill-rule="nonzero"/><path fill="#000000" fill-opacity="0.0" d="m452.56693 127.35171l0 0c0 -15.150871 12.282196 -27.433075 27.433075 -27.433075l0 0c7.275696 0 14.253418 2.8902664 19.398102 8.0349655c5.1447144 5.144699 8.034973 12.122406 8.034973 19.39811l0 0c0 15.150871 -12.282196 27.433067 -27.433075 27.433067l0 0c-15.150879 0 -27.433075 -12.282196 -27.433075 -27.433067z" fill-rule="evenodd"/><path stroke="#999999" stroke-width="3.0" stroke-linejoin="round" stroke-linecap="butt" d="m452.56693 127.35171l0 0c0 -15.150871 12.282196 -27.433075 27.433075 -27.433075l0 0c7.275696 0 14.253418 2.8902664 19.398102 8.0349655c5.1447144 5.144699 8.034973 12.122406 8.034973 19.39811l0 0c0 15.150871 -12.282196 27.433067 -27.433075 27.433067l0 0c-15.150879 0 -27.433075 -12.282196 -27.433075 -27.433067z" fill-rule="evenodd"/><path fill="#999999" d="m491.21127 113.79983l0 3.265625l-14.859375 0l9.4375 10.046875l-9.4375 11.093758l15.640625 0l0 3.265625l-19.59375 0l0 -3.8125l9.03125 -10.546883l-9.03125 -9.625l0 -3.6875l18.8125 0z" fill-rule="nonzero"/><path fill="#000000" fill-opacity="0.0" d="m178.23622 287.021l282.36218 -140.28346" fill-rule="evenodd"/><path stroke="#999999" stroke-width="3.0" stroke-linejoin="round" stroke-linecap="butt" d="m178.23622 287.021l273.15466 -135.70898" fill-rule="evenodd"/><path fill="#999999" stroke="#999999" stroke-width="3.0" stroke-linecap="butt" d="m451.3909 151.31203l-1.5202942 4.5224915l6.8001404 -7.14563l-9.802338 1.102829z" fill-rule="evenodd"/><path fill="#000000" fill-opacity="0.0" d="m233.10236 287.021l227.49606 -140.28346" fill-rule="evenodd"/><path stroke="#999999" stroke-width="3.0" stroke-linejoin="round" stroke-linecap="butt" d="m233.10236 287.021l218.74487 -134.8871" fill-rule="evenodd"/><path fill="#999999" stroke="#999999" stroke-width="3.0" stroke-linecap="butt" d="m451.84723 152.1339l-1.1008911 4.642456l6.119049 -7.7368774l-9.660645 1.9935303z" fill-rule="evenodd"/><path fill="#000000" fill-opacity="0.0" d="m287.9685 287.021l172.62991 -140.28346" fill-rule="evenodd"/><path stroke="#999999" stroke-width="3.0" stroke-linejoin="round" stroke-linecap="butt" d="m287.9685 287.021l164.651 -133.79958" fill-rule="evenodd"/><path fill="#999999" stroke="#999999" stroke-width="3.0" stroke-linecap="butt" d="m452.61948 153.22142l-0.49057007 4.7459106l5.065918 -8.4639435l-9.321259 3.2274475z" fill-rule="evenodd"/><path fill="#000000" fill-opacity="0.0" d="m342.83466 287.021l117.76376 -140.28346" fill-rule="evenodd"/><path stroke="#999999" stroke-width="3.0" stroke-linejoin="round" stroke-linecap="butt" d="m342.83466 287.021l111.15341 -132.409" fill-rule="evenodd"/><path fill="#999999" stroke="#999999" stroke-width="3.0" stroke-linecap="butt" d="m453.98804 154.612l0.41482544 4.7531433l3.375763 -9.26857l-8.543732 4.930237z" fill-rule="evenodd"/><path fill="#000000" fill-opacity="0.0" d="m397.70078 287.021l82.299225 -132.22047" fill-rule="evenodd"/><path stroke="#999999" stroke-width="3.0" stroke-linejoin="round" stroke-linecap="butt" d="m397.70078 287.021l76.86624 -123.49194" fill-rule="evenodd"/><path fill="#999999" stroke="#999999" stroke-width="3.0" stroke-linecap="butt" d="m474.56702 163.52905l1.0814209 4.6470337l2.0339966 -9.652206l-7.762451 6.0865784z" fill-rule="evenodd"/><path fill="#000000" fill-opacity="0.0" d="m452.56693 287.021l27.433075 -132.22047" fill-rule="evenodd"/><path stroke="#999999" stroke-width="3.0" stroke-linejoin="round" stroke-linecap="butt" d="m452.56693 287.021l25.344421 -122.15361" fill-rule="evenodd"/><path fill="#999999" stroke="#999999" stroke-width="3.0" stroke-linecap="butt" d="m477.91132 164.86739l2.6180115 3.9887848l-1.4202881 -9.761398l-5.186493 8.390625z" fill-rule="evenodd"/><path fill="#000000" fill-opacity="0.0" d="m507.43307 287.021l-27.433075 -132.22047" fill-rule="evenodd"/><path stroke="#999999" stroke-width="3.0" stroke-linejoin="round" stroke-linecap="butt" d="m507.43307 287.021l-25.344421 -122.15361" fill-rule="evenodd"/><path fill="#999999" stroke="#999999" stroke-width="3.0" stroke-linecap="butt" d="m482.08868 164.86739l3.9887695 2.6180115l-5.186493 -8.390625l-1.4202881 9.761398z" fill-rule="evenodd"/><path fill="#000000" fill-opacity="0.0" d="m562.2992 287.021l-82.299194 -132.22047" fill-rule="evenodd"/><path stroke="#999999" stroke-width="3.0" stroke-linejoin="round" stroke-linecap="butt" d="m562.2992 287.021l-76.86621 -123.49194" fill-rule="evenodd"/><path fill="#999999" stroke="#999999" stroke-width="3.0" stroke-linecap="butt" d="m485.43298 163.52905l4.6470337 1.0814056l-7.762451 -6.0865784l2.0339966 9.652206z" fill-rule="evenodd"/><path fill="#000000" fill-opacity="0.0" d="m617.16534 287.021l-117.76376 -140.28346" fill-rule="evenodd"/><path stroke="#999999" stroke-width="3.0" stroke-linejoin="round" stroke-linecap="butt" d="m617.16534 287.021l-111.15341 -132.409" fill-rule="evenodd"/><path fill="#999999" stroke="#999999" stroke-width="3.0" stroke-linecap="butt" d="m506.01196 154.612l4.7531433 0.41481018l-8.543732 -4.930237l3.375763 9.26857z" fill-rule="evenodd"/><path fill="#000000" fill-opacity="0.0" d="m672.0315 287.021l-172.62991 -140.28346" fill-rule="evenodd"/><path stroke="#999999" stroke-width="3.0" stroke-linejoin="round" stroke-linecap="butt" d="m672.0315 287.021l-164.651 -133.79958" fill-rule="evenodd"/><path fill="#999999" stroke="#999999" stroke-width="3.0" stroke-linecap="butt" d="m507.38052 153.22142l4.74588 -0.49058533l-9.321228 -3.2274475l5.065918 8.4639435z" fill-rule="evenodd"/><path fill="#000000" fill-opacity="0.0" d="m726.89764 287.021l-227.49606 -140.28346" fill-rule="evenodd"/><path stroke="#999999" stroke-width="3.0" stroke-linejoin="round" stroke-linecap="butt" d="m726.89764 287.021l-218.74487 -134.8871" fill-rule="evenodd"/><path fill="#999999" stroke="#999999" stroke-width="3.0" stroke-linecap="butt" d="m508.15277 152.1339l4.642456 -1.1008911l-9.660614 -1.9935303l6.119049 7.7368774z" fill-rule="evenodd"/><path fill="#000000" fill-opacity="0.0" d="m781.7638 287.021l-282.3622 -140.28346" fill-rule="evenodd"/><path stroke="#999999" stroke-width="3.0" stroke-linejoin="round" stroke-linecap="butt" d="m781.7638 287.021l-273.1547 -135.70898" fill-rule="evenodd"/><path fill="#999999" stroke="#999999" stroke-width="3.0" stroke-linecap="butt" d="m508.6091 151.31203l4.5224915 -1.5203094l-9.802338 -1.102829l6.8001404 7.14563z" fill-rule="evenodd"/><path fill="#000000" fill-opacity="0.0" d="m210.57217 451.75592l0 0c0 -15.150879 12.282211 -27.433075 27.433075 -27.433075l0 0c7.275696 0 14.253418 2.8902588 19.398102 8.034943c5.1447144 5.1447144 8.034973 12.122406 8.034973 19.398132l0 0c0 15.150848 -12.282211 27.433044 -27.433075 27.433044l0 0c-15.150864 0 -27.433075 -12.282196 -27.433075 -27.433044z" fill-rule="evenodd"/><path stroke="#999999" stroke-width="3.0" stroke-linejoin="round" stroke-linecap="butt" d="m210.57217 451.75592l0 0c0 -15.150879 12.282211 -27.433075 27.433075 -27.433075l0 0c7.275696 0 14.253418 2.8902588 19.398102 8.034943c5.1447144 5.1447144 8.034973 12.122406 8.034973 19.398132l0 0c0 15.150848 -12.282211 27.433044 -27.433075 27.433044l0 0c-15.150864 0 -27.433075 -12.282196 -27.433075 -27.433044z" fill-rule="evenodd"/><path fill="#999999" d="m249.2165 438.20404l0 3.265625l-14.859375 0l9.4375 10.046875l-9.4375 11.09375l15.640625 0l0 3.265625l-19.59375 0l0 -3.8125l9.03125 -10.546875l-9.03125 -9.625l0 -3.6875l18.8125 0z" fill-rule="nonzero"/><path fill="#000000" fill-opacity="0.0" d="m155.70604 616.4908l62.89763 -145.32281" fill-rule="evenodd"/><path stroke="#c9daf8" stroke-width="3.0" stroke-linejoin="round" stroke-linecap="butt" d="m155.70604 616.4908l58.813873 -135.88739" fill-rule="evenodd"/><path fill="#c9daf8" stroke="#c9daf8" stroke-width="3.0" stroke-linecap="butt" d="m214.5199 480.6034l1.7561188 4.4362793l0.5856323 -9.846802l-6.778015 7.1666565z" fill-rule="evenodd"/><path fill="#000000" fill-opacity="0.0" d="m210.57217 616.4908l27.433075 -137.29132" fill-rule="evenodd"/><path stroke="#b6d7a8" stroke-width="3.0" stroke-linejoin="round" stroke-linecap="butt" d="m210.57217 616.4908l25.418533 -127.20932" fill-rule="evenodd"/><path fill="#b6d7a8" stroke="#b6d7a8" stroke-width="3.0" stroke-linecap="butt" d="m235.9907 489.28143l2.647293 3.9694214l-1.492096 -9.750702l-5.1246185 8.428558z" fill-rule="evenodd"/><path fill="#000000" fill-opacity="0.0" d="m265.43832 616.4908l-27.433075 -137.29132" fill-rule="evenodd"/><path stroke="#ffe599" stroke-width="3.0" stroke-linejoin="round" stroke-linecap="butt" d="m265.43832 616.4908l-25.418533 -127.20932" fill-rule="evenodd"/><path fill="#ffe599" stroke="#ffe599" stroke-width="3.0" stroke-linecap="butt" d="m240.01979 489.28143l3.9694214 2.6472778l-5.1246185 -8.428558l-1.492096 9.750702z" fill-rule="evenodd"/><path fill="#000000" fill-opacity="0.0" d="m320.30447 616.4908l-62.897644 -145.32281" fill-rule="evenodd"/><path stroke="#f4cccc" stroke-width="3.0" stroke-linejoin="round" stroke-linecap="butt" d="m320.30447 616.4908l-58.813873 -135.88739" fill-rule="evenodd"/><path fill="#f4cccc" stroke="#f4cccc" stroke-width="3.0" stroke-linecap="butt" d="m261.4906 480.6034l4.436249 1.756134l-6.7779846 -7.1666565l0.5856018 9.846802z" fill-rule="evenodd"/><path fill="#000000" fill-opacity="0.0" d="m397.70078 616.4908l62.897644 -145.32281" fill-rule="evenodd"/><path stroke="#c9daf8" stroke-width="3.0" stroke-linejoin="round" stroke-linecap="butt" d="m397.70078 616.4908l58.813873 -135.88739" fill-rule="evenodd"/><path fill="#c9daf8" stroke="#c9daf8" stroke-width="3.0" stroke-linecap="butt" d="m456.51465 480.6034l1.756134 4.4362793l0.5856018 -9.846802l-6.7779846 7.1666565z" fill-rule="evenodd"/><path fill="#000000" fill-opacity="0.0" d="m452.56693 616.4908l27.433075 -137.29132" fill-rule="evenodd"/><path stroke="#b6d7a8" stroke-width="3.0" stroke-linejoin="round" stroke-linecap="butt" d="m452.56693 616.4908l25.418518 -127.20932" fill-rule="evenodd"/><path fill="#b6d7a8" stroke="#b6d7a8" stroke-width="3.0" stroke-linecap="butt" d="m477.98544 489.28143l2.6473083 3.9694214l-1.492096 -9.750702l-5.1246033 8.428558z" fill-rule="evenodd"/><path fill="#000000" fill-opacity="0.0" d="m507.43307 616.4908l-27.433075 -137.29132" fill-rule="evenodd"/><path stroke="#ffe599" stroke-width="3.0" stroke-linejoin="round" stroke-linecap="butt" d="m507.43307 616.4908l-25.418518 -127.20932" fill-rule="evenodd"/><path fill="#ffe599" stroke="#ffe599" stroke-width="3.0" stroke-linecap="butt" d="m482.01456 489.28143l3.9693909 2.6472778l-5.1246033 -8.428558l-1.492096 9.750702z" fill-rule="evenodd"/><path fill="#000000" fill-opacity="0.0" d="m562.2992 616.4908l-62.897614 -145.32281" fill-rule="evenodd"/><path stroke="#f4cccc" stroke-width="3.0" stroke-linejoin="round" stroke-linecap="butt" d="m562.2992 616.4908l-58.813843 -135.88739" fill-rule="evenodd"/><path fill="#f4cccc" stroke="#f4cccc" stroke-width="3.0" stroke-linecap="butt" d="m503.48535 480.6034l4.436249 1.756134l-6.7779846 -7.1666565l0.5856018 9.846802z" fill-rule="evenodd"/><path fill="#000000" fill-opacity="0.0" d="m639.69556 616.4908l62.897644 -145.32281" fill-rule="evenodd"/><path stroke="#c9daf8" stroke-width="3.0" stroke-linejoin="round" stroke-linecap="butt" d="m639.69556 616.4908l58.813904 -135.88739" fill-rule="evenodd"/><path fill="#c9daf8" stroke="#c9daf8" stroke-width="3.0" stroke-linecap="butt" d="m698.5094 480.6034l1.7561035 4.4362793l0.5856323 -9.846802l-6.778015 7.1666565z" fill-rule="evenodd"/><path fill="#000000" fill-opacity="0.0" d="m694.5617 616.4908l27.433044 -137.29132" fill-rule="evenodd"/><path stroke="#b6d7a8" stroke-width="3.0" stroke-linejoin="round" stroke-linecap="butt" d="m694.5617 616.4908l25.418518 -127.20932" fill-rule="evenodd"/><path fill="#b6d7a8" stroke="#b6d7a8" stroke-width="3.0" stroke-linecap="butt" d="m719.9802 489.28143l2.6472778 3.9694214l-1.4921265 -9.750702l-5.1245728 8.428558z" fill-rule="evenodd"/><path fill="#000000" fill-opacity="0.0" d="m749.4278 616.4908l-27.433044 -137.29132" fill-rule="evenodd"/><path stroke="#ffe599" stroke-width="3.0" stroke-linejoin="round" stroke-linecap="butt" d="m749.4278 616.4908l-25.418518 -127.20932" fill-rule="evenodd"/><path fill="#ffe599" stroke="#ffe599" stroke-width="3.0" stroke-linecap="butt" d="m724.0093 489.28143l3.9694214 2.6472778l-5.1245728 -8.428558l-1.4921265 9.750702z" fill-rule="evenodd"/><path fill="#000000" fill-opacity="0.0" d="m804.29395 616.4908l-62.897644 -145.32281" fill-rule="evenodd"/><path stroke="#f4cccc" stroke-width="3.0" stroke-linejoin="round" stroke-linecap="butt" d="m804.29395 616.4908l-58.813904 -135.88739" fill-rule="evenodd"/><path fill="#f4cccc" stroke="#f4cccc" stroke-width="3.0" stroke-linecap="butt" d="m745.4801 480.6034l4.4362793 1.756134l-6.778015 -7.1666565l0.5856323 9.846802z" fill-rule="evenodd"/><path fill="#000000" fill-opacity="0.0" d="m452.56693 451.75592l0 0c0 -15.150879 12.282196 -27.433075 27.433075 -27.433075l0 0c7.275696 0 14.253418 2.8902588 19.398102 8.034943c5.1447144 5.1447144 8.034973 12.122406 8.034973 19.398132l0 0c0 15.150848 -12.282196 27.433044 -27.433075 27.433044l0 0c-15.150879 0 -27.433075 -12.282196 -27.433075 -27.433044z" fill-rule="evenodd"/><path stroke="#999999" stroke-width="3.0" stroke-linejoin="round" stroke-linecap="butt" d="m452.56693 451.75592l0 0c0 -15.150879 12.282196 -27.433075 27.433075 -27.433075l0 0c7.275696 0 14.253418 2.8902588 19.398102 8.034943c5.1447144 5.1447144 8.034973 12.122406 8.034973 19.398132l0 0c0 15.150848 -12.282196 27.433044 -27.433075 27.433044l0 0c-15.150879 0 -27.433075 -12.282196 -27.433075 -27.433044z" fill-rule="evenodd"/><path fill="#999999" d="m491.21127 438.20404l0 3.265625l-14.859375 0l9.4375 10.046875l-9.4375 11.09375l15.640625 0l0 3.265625l-19.59375 0l0 -3.8125l9.03125 -10.546875l-9.03125 -9.625l0 -3.6875l18.8125 0z" fill-rule="nonzero"/><path fill="#000000" fill-opacity="0.0" d="m694.5617 451.75592l0 0c0 -15.150879 12.282166 -27.433075 27.433044 -27.433075l0 0c7.275696 0 14.253418 2.8902588 19.398132 8.034943c5.1446533 5.1447144 8.034912 12.122406 8.034912 19.398132l0 0c0 15.150848 -12.282166 27.433044 -27.433044 27.433044l0 0c-15.150879 0 -27.433044 -12.282196 -27.433044 -27.433044z" fill-rule="evenodd"/><path stroke="#999999" stroke-width="3.0" stroke-linejoin="round" stroke-linecap="butt" d="m694.5617 451.75592l0 0c0 -15.150879 12.282166 -27.433075 27.433044 -27.433075l0 0c7.275696 0 14.253418 2.8902588 19.398132 8.034943c5.1446533 5.1447144 8.034912 12.122406 8.034912 19.398132l0 0c0 15.150848 -12.282166 27.433044 -27.433044 27.433044l0 0c-15.150879 0 -27.433044 -12.282196 -27.433044 -27.433044z" fill-rule="evenodd"/><path fill="#999999" d="m733.206 438.20404l0 3.265625l-14.859375 0l9.4375 10.046875l-9.4375 11.09375l15.640625 0l0 3.265625l-19.59375 0l0 -3.8125l9.03125 -10.546875l-9.03125 -9.625l0 -3.6875l18.8125 0z" fill-rule="nonzero"/><path fill="#000000" fill-opacity="0.0" d="m128.27296 616.4908l54.86615 0l0 54.86615l-54.86615 0z" fill-rule="evenodd"/><path stroke="#999999" stroke-width="3.0" stroke-linejoin="round" stroke-linecap="butt" d="m128.27296 616.4908l54.86615 0l0 54.86615l-54.86615 0z" fill-rule="evenodd"/><path fill="#999999" d="m157.4713 650.8439l-1.640625 0l0 -10.453125q-0.59375 0.5625 -1.5625 1.140625q-0.953125 0.5625 -1.71875 0.84375l0 -1.59375q1.375 -0.640625 2.40625 -1.5625q1.03125 -0.921875 1.453125 -1.78125l1.0625 0l0 13.40625z" fill-rule="nonzero"/><path fill="#000000" fill-opacity="0.0" d="m183.13911 616.4908l54.866135 0l0 54.86615l-54.866135 0z" fill-rule="evenodd"/><path stroke="#999999" stroke-width="3.0" stroke-linejoin="round" stroke-linecap="butt" d="m183.13911 616.4908l54.866135 0l0 54.86615l-54.866135 0z" fill-rule="evenodd"/><path fill="#999999" d="m214.77495 649.26575l0 1.578125l-8.828125 0q-0.015625 -0.59375 0.1875 -1.140625q0.34375 -0.90625 1.078125 -1.78125q0.75 -0.875 2.15625 -2.015625q2.171875 -1.78125 2.9375 -2.828125q0.765625 -1.046875 0.765625 -1.96875q0 -0.984375 -0.703125 -1.640625q-0.6875 -0.671875 -1.8125 -0.671875q-1.1875 0 -1.90625 0.71875q-0.703125 0.703125 -0.703125 1.953125l-1.6875 -0.171875q0.171875 -1.890625 1.296875 -2.875q1.140625 -0.984375 3.03125 -0.984375q1.921875 0 3.046875 1.0625q1.125 1.0625 1.125 2.640625q0 0.796875 -0.328125 1.578125q-0.328125 0.78125 -1.09375 1.640625q-0.75 0.84375 -2.53125 2.34375q-1.46875 1.234375 -1.890625 1.6875q-0.421875 0.4375 -0.6875 0.875l6.546875 0z" fill-rule="nonzero"/><path fill="#000000" fill-opacity="0.0" d="m238.00525 616.4908l54.86615 0l0 54.86615l-54.86615 0z" fill-rule="evenodd"/><path stroke="#999999" stroke-width="3.0" stroke-linejoin="round" stroke-linecap="butt" d="m238.00525 616.4908l54.86615 0l0 54.86615l-54.86615 0z" fill-rule="evenodd"/><path fill="#999999" d="m261.0317 647.3126l1.640625 -0.21875q0.28125 1.40625 0.953125 2.015625q0.6875 0.609375 1.65625 0.609375q1.15625 0 1.953125 -0.796875q0.796875 -0.796875 0.796875 -1.984375q0 -1.125 -0.734375 -1.859375q-0.734375 -0.734375 -1.875 -0.734375q-0.46875 0 -1.15625 0.171875l0.1875 -1.4375q0.15625 0.015625 0.265625 0.015625q1.046875 0 1.875 -0.546875q0.84375 -0.546875 0.84375 -1.671875q0 -0.90625 -0.609375 -1.5q-0.609375 -0.59375 -1.578125 -0.59375q-0.953125 0 -1.59375 0.609375q-0.640625 0.59375 -0.8125 1.796875l-1.640625 -0.296875q0.296875 -1.640625 1.359375 -2.546875q1.0625 -0.90625 2.65625 -0.90625q1.09375 0 2.0 0.46875q0.921875 0.46875 1.40625 1.28125q0.5 0.8125 0.5 1.71875q0 0.859375 -0.46875 1.578125q-0.46875 0.703125 -1.375 1.125q1.1875 0.28125 1.84375 1.140625q0.65625 0.859375 0.65625 2.15625q0 1.734375 -1.28125 2.953125q-1.265625 1.21875 -3.21875 1.21875q-1.765625 0 -2.921875 -1.046875q-1.15625 -1.046875 -1.328125 -2.71875z" fill-rule="nonzero"/><path fill="#000000" fill-opacity="0.0" d="m292.8714 616.4908l54.86612 0l0 54.86615l-54.86612 0z" fill-rule="evenodd"/><path stroke="#999999" stroke-width="3.0" stroke-linejoin="round" stroke-linecap="butt" d="m292.8714 616.4908l54.86612 0l0 54.86615l-54.86612 0z" fill-rule="evenodd"/><path fill="#999999" d="m321.14786 650.8439l0 -3.203125l-5.796875 0l0 -1.5l6.09375 -8.65625l1.34375 0l0 8.65625l1.796875 0l0 1.5l-1.796875 0l0 3.203125l-1.640625 0zm0 -4.703125l0 -6.015625l-4.1875 6.015625l4.1875 0z" fill-rule="nonzero"/><path fill="#000000" fill-opacity="0.0" d="m370.26773 616.4908l54.86612 0l0 54.86615l-54.86612 0z" fill-rule="evenodd"/><path stroke="#999999" stroke-width="3.0" stroke-linejoin="round" stroke-linecap="butt" d="m370.26773 616.4908l54.86612 0l0 54.86615l-54.86612 0z" fill-rule="evenodd"/><path fill="#999999" d="m393.2942 647.3439l1.71875 -0.140625q0.1875 1.25 0.875 1.890625q0.703125 0.625 1.6875 0.625q1.1875 0 2.0 -0.890625q0.828125 -0.890625 0.828125 -2.359375q0 -1.40625 -0.796875 -2.21875q-0.78125 -0.8125 -2.0625 -0.8125q-0.78125 0 -1.421875 0.359375q-0.640625 0.359375 -1.0 0.9375l-1.546875 -0.203125l1.296875 -6.859375l6.640625 0l0 1.5625l-5.328125 0l-0.71875 3.59375q1.203125 -0.84375 2.515625 -0.84375q1.75 0 2.953125 1.21875q1.203125 1.203125 1.203125 3.109375q0 1.8125 -1.046875 3.140625q-1.296875 1.625 -3.515625 1.625q-1.8125 0 -2.96875 -1.015625q-1.15625 -1.03125 -1.3125 -2.71875z" fill-rule="nonzero"/><path fill="#000000" fill-opacity="0.0" d="m425.13385 616.4908l54.86615 0l0 54.86615l-54.86615 0z" fill-rule="evenodd"/><path stroke="#999999" stroke-width="3.0" stroke-linejoin="round" stroke-linecap="butt" d="m425.13385 616.4908l54.86615 0l0 54.86615l-54.86615 0z" fill-rule="evenodd"/><path fill="#999999" d="m456.6603 640.76575l-1.625 0.125q-0.21875 -0.96875 -0.625 -1.40625q-0.65625 -0.703125 -1.640625 -0.703125q-0.78125 0 -1.375 0.4375q-0.765625 0.5625 -1.21875 1.65625q-0.453125 1.078125 -0.46875 3.078125q0.59375 -0.890625 1.453125 -1.328125q0.859375 -0.4375 1.796875 -0.4375q1.640625 0 2.78125 1.203125q1.15625 1.203125 1.15625 3.109375q0 1.265625 -0.546875 2.34375q-0.53125 1.078125 -1.484375 1.65625q-0.9375 0.578125 -2.140625 0.578125q-2.0625 0 -3.359375 -1.5q-1.28125 -1.515625 -1.28125 -4.984375q0 -3.875 1.421875 -5.625q1.25 -1.53125 3.375 -1.53125q1.5625 0 2.5625 0.890625q1.015625 0.875 1.21875 2.4375zm-6.6875 5.75q0 0.84375 0.359375 1.625q0.359375 0.765625 1.0 1.171875q0.640625 0.40625 1.359375 0.40625q1.03125 0 1.78125 -0.828125q0.75 -0.84375 0.75 -2.28125q0 -1.390625 -0.734375 -2.1875q-0.734375 -0.796875 -1.859375 -0.796875q-1.109375 0 -1.890625 0.796875q-0.765625 0.796875 -0.765625 2.09375z" fill-rule="nonzero"/><path fill="#000000" fill-opacity="0.0" d="m480.0 616.4908l54.86615 0l0 54.86615l-54.86615 0z" fill-rule="evenodd"/><path stroke="#999999" stroke-width="3.0" stroke-linejoin="round" stroke-linecap="butt" d="m480.0 616.4908l54.86615 0l0 54.86615l-54.86615 0z" fill-rule="evenodd"/><path fill="#999999" d="m503.13583 639.2345l0 -1.578125l8.640625 0l0 1.28125q-1.28125 1.359375 -2.53125 3.609375q-1.25 2.25 -1.9375 4.625q-0.484375 1.671875 -0.625 3.671875l-1.6875 0q0.03125 -1.578125 0.625 -3.8125q0.59375 -2.234375 1.6875 -4.296875q1.109375 -2.078125 2.359375 -3.5l-6.53125 0z" fill-rule="nonzero"/><path fill="#000000" fill-opacity="0.0" d="m534.86615 616.4908l54.86615 0l0 54.86615l-54.86615 0z" fill-rule="evenodd"/><path stroke="#999999" stroke-width="3.0" stroke-linejoin="round" stroke-linecap="butt" d="m534.86615 616.4908l54.86615 0l0 54.86615l-54.86615 0z" fill-rule="evenodd"/><path fill="#999999" d="m560.4082 643.6095q-1.015625 -0.375 -1.515625 -1.0625q-0.484375 -0.703125 -0.484375 -1.671875q0 -1.453125 1.046875 -2.4375q1.046875 -1.0 2.78125 -1.0q1.75 0 2.8125 1.015625q1.078125 1.015625 1.078125 2.46875q0 0.9375 -0.5 1.625q-0.484375 0.6875 -1.46875 1.0625q1.21875 0.390625 1.859375 1.28125q0.65625 0.890625 0.65625 2.140625q0 1.703125 -1.21875 2.875q-1.21875 1.171875 -3.1875 1.171875q-1.984375 0 -3.203125 -1.171875q-1.203125 -1.171875 -1.203125 -2.921875q0 -1.3125 0.65625 -2.1875q0.671875 -0.875 1.890625 -1.1875zm-0.328125 -2.78125q0 0.9375 0.609375 1.546875q0.609375 0.59375 1.59375 0.59375q0.9375 0 1.546875 -0.59375q0.609375 -0.59375 0.609375 -1.453125q0 -0.90625 -0.625 -1.515625q-0.625 -0.625 -1.5625 -0.625q-0.9375 0 -1.5625 0.609375q-0.609375 0.59375 -0.609375 1.4375zm-0.53125 6.15625q0 0.703125 0.328125 1.359375q0.34375 0.65625 1.0 1.015625q0.65625 0.359375 1.40625 0.359375q1.171875 0 1.9375 -0.75q0.765625 -0.75 0.765625 -1.921875q0 -1.1875 -0.796875 -1.953125q-0.78125 -0.78125 -1.953125 -0.78125q-1.15625 0 -1.921875 0.765625q-0.765625 0.765625 -0.765625 1.90625z" fill-rule="nonzero"/><path fill="#000000" fill-opacity="0.0" d="m612.26245 616.4908l54.86615 0l0 54.86615l-54.86615 0z" fill-rule="evenodd"/><path stroke="#999999" stroke-width="3.0" stroke-linejoin="round" stroke-linecap="butt" d="m612.26245 616.4908l54.86615 0l0 54.86615l-54.86615 0z" fill-rule="evenodd"/><path fill="#999999" d="m635.5233 647.7501l1.578125 -0.140625q0.203125 1.109375 0.765625 1.609375q0.5625 0.5 1.453125 0.5q0.75 0 1.3125 -0.34375q0.578125 -0.34375 0.9375 -0.921875q0.375 -0.578125 0.609375 -1.5625q0.25 -0.984375 0.25 -2.0q0 -0.109375 0 -0.328125q-0.5 0.78125 -1.359375 1.265625q-0.84375 0.484375 -1.828125 0.484375q-1.671875 0 -2.8125 -1.203125q-1.140625 -1.203125 -1.140625 -3.171875q0 -2.03125 1.1875 -3.265625q1.203125 -1.234375 3.0 -1.234375q1.3125 0 2.390625 0.703125q1.078125 0.703125 1.640625 2.0q0.5625 1.296875 0.5625 3.75q0 2.5625 -0.5625 4.078125q-0.5625 1.515625 -1.65625 2.3125q-1.09375 0.796875 -2.578125 0.796875q-1.5625 0 -2.5625 -0.875q-0.984375 -0.875 -1.1875 -2.453125zm6.71875 -5.890625q0 -1.40625 -0.75 -2.234375q-0.75 -0.828125 -1.8125 -0.828125q-1.09375 0 -1.90625 0.890625q-0.8125 0.890625 -0.8125 2.3125q0 1.28125 0.765625 2.078125q0.78125 0.796875 1.90625 0.796875q1.140625 0 1.875 -0.796875q0.734375 -0.796875 0.734375 -2.21875z" fill-rule="nonzero"/><path fill="#000000" fill-opacity="0.0" d="m667.1286 616.4908l54.86615 0l0 54.86615l-54.86615 0z" fill-rule="evenodd"/><path stroke="#999999" stroke-width="3.0" stroke-linejoin="round" stroke-linecap="butt" d="m667.1286 616.4908l54.86615 0l0 54.86615l-54.86615 0z" fill-rule="evenodd"/><path fill="#999999" d="m691.1391 650.8439l-1.640625 0l0 -10.453125q-0.59375 0.5625 -1.5625 1.140625q-0.953125 0.5625 -1.71875 0.84375l0 -1.59375q1.375 -0.640625 2.40625 -1.5625q1.03125 -0.921875 1.453125 -1.78125l1.0625 0l0 13.40625zm4.2038574 -6.59375q0 -2.359375 0.484375 -3.796875q0.484375 -1.453125 1.4375 -2.234375q0.96875 -0.78125 2.421875 -0.78125q1.078125 0 1.890625 0.4375q0.8125 0.421875 1.328125 1.25q0.53125 0.8125 0.828125 1.984375q0.3125 1.15625 0.3125 3.140625q0 2.359375 -0.484375 3.8125q-0.484375 1.4375 -1.453125 2.234375q-0.953125 0.78125 -2.421875 0.78125q-1.921875 0 -3.03125 -1.390625q-1.3125 -1.671875 -1.3125 -5.4375zm1.671875 0q0 3.296875 0.765625 4.390625q0.78125 1.078125 1.90625 1.078125q1.140625 0 1.90625 -1.09375q0.765625 -1.09375 0.765625 -4.375q0 -3.296875 -0.765625 -4.375q-0.765625 -1.078125 -1.921875 -1.078125q-1.125 0 -1.796875 0.953125q-0.859375 1.21875 -0.859375 4.5z" fill-rule="nonzero"/><path fill="#000000" fill-opacity="0.0" d="m721.99475 616.4908l54.86615 0l0 54.86615l-54.86615 0z" fill-rule="evenodd"/><path stroke="#999999" stroke-width="3.0" stroke-linejoin="round" stroke-linecap="butt" d="m721.99475 616.4908l54.86615 0l0 54.86615l-54.86615 0z" fill-rule="evenodd"/><path fill="#999999" d="m746.69794 650.8439l-1.640625 0l0 -10.453125q-0.59375 0.5625 -1.5625 1.140625q-0.953125 0.5625 -1.71875 0.84375l0 -1.59375q1.375 -0.640625 2.40625 -1.5625q1.03125 -0.921875 1.453125 -1.78125l1.0625 0l0 13.40625zm8.990295 0l-1.640625 0l0 -10.453125q-0.59375 0.5625 -1.5625 1.140625q-0.953125 0.5625 -1.71875 0.84375l0 -1.59375q1.375 -0.640625 2.40625 -1.5625q1.03125 -0.921875 1.453125 -1.78125l1.0625 0l0 13.40625z" fill-rule="nonzero"/><path fill="#000000" fill-opacity="0.0" d="m776.8609 616.4908l54.86615 0l0 54.86615l-54.86615 0z" fill-rule="evenodd"/><path stroke="#999999" stroke-width="3.0" stroke-linejoin="round" stroke-linecap="butt" d="m776.8609 616.4908l54.86615 0l0 54.86615l-54.86615 0z" fill-rule="evenodd"/><path fill="#999999" d="m800.8714 650.8439l-1.640625 0l0 -10.453125q-0.59375 0.5625 -1.5625 1.140625q-0.953125 0.5625 -1.71875 0.84375l0 -1.59375q1.375 -0.640625 2.40625 -1.5625q1.03125 -0.921875 1.453125 -1.78125l1.0625 0l0 13.40625zm12.813171 -1.578125l0 1.578125l-8.828125 0q-0.015625 -0.59375 0.1875 -1.140625q0.34375 -0.90625 1.078125 -1.78125q0.75 -0.875 2.15625 -2.015625q2.171875 -1.78125 2.9375 -2.828125q0.765625 -1.046875 0.765625 -1.96875q0 -0.984375 -0.703125 -1.640625q-0.6875 -0.671875 -1.8125 -0.671875q-1.1875 0 -1.90625 0.71875q-0.703125 0.703125 -0.703125 1.953125l-1.6875 -0.171875q0.171875 -1.890625 1.296875 -2.875q1.140625 -0.984375 3.03125 -0.984375q1.921875 0 3.046875 1.0625q1.125 1.0625 1.125 2.640625q0 0.796875 -0.328125 1.578125q-0.328125 0.78125 -1.09375 1.640625q-0.75 0.84375 -2.53125 2.34375q-1.46875 1.234375 -1.890625 1.6875q-0.421875 0.4375 -0.6875 0.875l6.546875 0z" fill-rule="nonzero"/></g></svg>